<svg width="59" height="59" xmlns="http://www.w3.org/2000/svg" xmlns:xlink="http://www.w3.org/1999/xlink" xmlns:svgjs="http://svgjs.com/svgjs"><svg xmlns="http://www.w3.org/2000/svg" width="59" height="59" viewBox="1 1.999 58 58" fill="#fff"><path fill="#FFF" paint-order="stroke fill markers" fill-rule="evenodd" d="M54.28 6.676c-2.983-2.977-6.907-4.677-10.778-4.677-3.263 0-6.27 1.211-8.463 3.403l-8.822 8.888c-.026.025-.058.043-.085.07-.014.014-.023.033-.037.047l.004.004L7.376 33.276a7.288 7.288 0 0 0-1.836 3.09l-4.257 15.42C1.278 51.83 1 53.042 1 53.656a6.349 6.349 0 0 0 6.353 6.343c.697 0 2.048-.332 2.097-.34l15.366-4.039a7.303 7.303 0 0 0 3.09-1.84L55.57 25.898c5.032-5.037 4.465-13.476-1.29-19.222zM30.025 45.13c-.148-1.638-.61-3.241-1.302-4.764l17.135-17.134c1.048 3.31.512 6.773-1.786 9.07-.014.015-.031.023-.045.037l.022.024L30.044 46.48c.002-.45.023-.892-.018-1.35zm-2.212-6.417c-.676-1.111-1.444-2.182-2.397-3.132-1.108-1.108-2.379-1.975-3.704-2.705L38.99 15.6a12.59 12.59 0 0 1 3.802 2.606c.979.977 1.738 2.07 2.32 3.209L27.814 38.713zm-7.808-6.694c-1.678-.676-3.437-1.062-5.198-1.085L28.77 16.866c2.136-2.085 5.25-2.685 8.315-1.924L20.006 32.019zM8.555 56.145c-.199.046-.813.201-1.23.23a2.726 2.726 0 0 1-2.7-2.72c.021-.302.143-.826.184-1.02l1.908-6.913c2.071-.056 4.301.751 6.053 2.507 1.781 1.778 2.618 4.052 2.526 6.145l-6.741 1.77zm8.53-2.241c-.045-2.431-1.035-4.962-3.031-6.955-1.889-1.892-4.36-2.982-6.825-3.08l1.805-6.538c.131-.436.39-.864.708-1.241 3.636-2.602 9.227-1.834 13.112 2.054 4.109 4.108 4.744 10.123 1.58 13.717-.211.11-.424.216-.652.285l-6.698 1.758zm35.92-30.567l-3.053 3.076c0-.409.05-.803.012-1.22-.318-3.507-1.956-6.899-4.61-9.55-2.951-2.954-6.869-4.65-10.745-4.66l3.004-3.027c1.499-1.5 3.595-2.332 5.889-2.332 2.919 0 5.913 1.32 8.216 3.617 2.163 2.16 3.453 4.84 3.636 7.554.17 2.533-.664 4.855-2.35 6.542z"/></svg></svg>