<svg width="59" height="59" xmlns="http://www.w3.org/2000/svg" xmlns:xlink="http://www.w3.org/1999/xlink" xmlns:svgjs="http://svgjs.com/svgjs" viewBox="0.001 0 58.998 59"><svg xmlns="http://www.w3.org/2000/svg" width="59" height="59" viewBox="2 1.999 57.999 58.001" fill="#fff"><path fill="#FFF" paint-order="stroke fill markers" fill-rule="evenodd" d="M59.171 2.29c-.3-.195-.642-.291-.984-.291-.35 0-.7.1-1.005.305L2.807 38.554a1.81 1.81 0 0 0-.797 1.696 1.807 1.807 0 0 0 1.13 1.493l14.18 5.675 6.668 11.668c.32.56.912.907 1.555.914h.019c.636 0 1.227-.336 1.554-.882l3.765-6.276 17.57 7.027a1.8 1.8 0 0 0 1.561-.103c.479-.27.81-.74.9-1.282l9.063-54.375a1.812 1.812 0 0 0-.804-1.82zM7.685 39.658l42.004-28.005-30.54 32.692c-.16-.095-.304-.223-.481-.293L7.685 39.658zm12.783 5.962c-.004-.007-.009-.01-.012-.018L54.789 8.853l-29.27 45.606-5.051-8.84zm27.239 10.046l-15.48-6.191c-.37-.145-.753-.195-1.132-.216l23.839-36.954-7.227 43.361z"/></svg></svg>