<svg width="84" height="64" xmlns="http://www.w3.org/2000/svg" xmlns:xlink="http://www.w3.org/1999/xlink" xmlns:svgjs="http://svgjs.com/svgjs" viewBox="0 0.514 84 62.971"><svg xmlns="http://www.w3.org/2000/svg" width="84" height="64" viewBox="1.28 1.778 82.395 61.768" fill="#ccd0d2"><path fill="#CCD0D2" paint-order="stroke fill markers" fill-rule="evenodd" d="M82.166 16.37L69.086 3.285a5.15 5.15 0 0 0-3.641-1.508H19.512a5.15 5.15 0 0 0-3.64 1.508L2.79 16.37a5.147 5.147 0 0 0-.209 7.063L38.628 61.82a5.155 5.155 0 0 0 7.699 0l36.048-38.387a5.134 5.134 0 0 0 1.3-3.47 5.127 5.127 0 0 0-1.509-3.593zm-33.973 3.432H36.762l5.715-4.763 5.716 4.763zm-3.704-6.438l7.038-5.866 5.195 5.195-6.52 5.431-5.713-4.76zm-9.736 4.76l-6.52-5.43 5.195-5.196 7.038 5.866-5.713 4.76zm14.136 4.253l-6.412 32.062-6.412-32.062H48.89zm2.625 0H64.15L45.198 53.966l6.316-31.59zm.697-2.575l6.339-5.28 5.28 5.28H52.21zm2.386-12.874h9.045l-4.934 4.11-4.111-4.11zm-12.12 4.762l-5.715-4.762h11.43l-5.715 4.762zm-16.23-.651l-4.934-4.111h9.044l-4.11 4.11zm.158 3.482l6.338 5.28H21.124l5.28-5.28zm7.035 7.856l6.317 31.589-18.952-31.59H33.44zm.55 26.98L8.656 22.377h9.15l16.186 26.98zm33.16-26.98h9.152L50.962 49.36l16.187-26.983zm.321-2.575l-6.935-6.936 5.917-4.93 11.863 11.866H67.471zM18.494 7.93l5.924 4.936-6.935 6.936H6.445L18.494 7.93z"/></svg></svg>