<svg width="72" height="63" xmlns="http://www.w3.org/2000/svg" xmlns:xlink="http://www.w3.org/1999/xlink" xmlns:svgjs="http://svgjs.com/svgjs" viewBox="0 0.034 72 62.932"><svg xmlns="http://www.w3.org/2000/svg" width="72" height="63" viewBox="3.634 3.496 70.362 61.501" fill="#9f449b"><path fill="#9F449B" paint-order="stroke fill markers" fill-rule="evenodd" d="M67.825 9.565C59.843 1.667 47.084 1.5 38.814 8.932c-8.269-7.431-21.025-7.265-29.01.633a20.674 20.674 0 0 0 0 29.466L34.11 63.068a6.7 6.7 0 0 0 9.409 0L67.825 39.03a20.674 20.674 0 0 0 0-29.466zm-3.137 26.364L40.38 59.966a2.233 2.233 0 0 1-3.133 0L12.942 35.929c-6.488-6.414-6.488-16.85 0-23.264 6.254-6.185 16.308-6.402 22.89-.487l2.982 2.679 2.983-2.68c6.582-5.914 16.639-5.697 22.89.488 6.488 6.414 6.488 16.85 0 23.264zM23.974 14.477c-.004 0-.004.003-.009.003-5.156.004-9.337 4.18-9.337 9.333a1.099 1.099 0 0 0 2.199 0v-.002c0-3.94 3.2-7.137 7.145-7.137h.002a1.098 1.098 0 1 0 0-2.197z"/></svg></svg>